<svg width="271" height="193" viewBox="0 0 271 193" fill="none" xmlns="http://www.w3.org/2000/svg">
<path d="M17.7365 192.961L254.228 192.961C263.491 192.961 271 185.449 271 176.182V16.7792C271 7.51233 263.491 1.52588e-05 254.228 1.52588e-05L17.7365 1.52588e-05C8.47339 1.52588e-05 0.964111 7.51233 0.964111 16.7792V176.182C0.964111 185.449 8.47339 192.961 17.7365 192.961Z" fill="#E4A0D1"/>
<mask id="mask0" style="mask-type:alpha" maskUnits="userSpaceOnUse" x="52" y="31" width="169" height="131">
<path d="M52.12 31.8805H220.624V161.336H52.12V31.8805Z" fill="white"/>
</mask>
<g mask="url(#mask0)">
<path fill-rule="evenodd" clip-rule="evenodd" d="M200.07 120.479C200.07 127.149 195.851 136.941 183.549 143.125C171.405 149.229 154.272 152.674 136.359 152.716C118.455 152.754 101.339 149.392 89.2458 143.318C76.9935 137.185 72.7082 127.385 72.7082 120.479V111.774C72.7082 100.779 90.4031 94.5962 90.4031 94.5962L83.7695 103.763L117.356 91.5541L105.574 100.627L140.838 91.0499L130.061 99.5847L165.694 91.0499L155.195 99.9337C155.195 99.9337 180.848 95.8907 185.184 95.8907C199.491 95.8907 200.07 111.774 200.07 111.774V120.479ZM212.85 102.592C212.85 102.591 212.85 102.59 212.85 102.589C208.808 62.1182 176.11 31.8802 136.393 31.8802C96.634 31.8802 63.9446 62.1182 59.9024 102.588C59.9024 102.59 59.9024 102.59 59.9024 102.591C55.5164 103.127 52.12 106.879 52.12 111.45C52.12 115.872 55.2984 119.537 59.4747 120.254C59.4831 120.254 59.4831 120.257 59.4831 120.258C60.2966 175.382 212.456 174.673 213.269 120.257C213.269 120.254 213.269 120.253 213.278 120.252C217.446 119.531 220.624 115.87 220.624 111.45C220.624 106.883 217.228 103.132 212.85 102.592Z" fill="white"/>
<path fill-rule="evenodd" clip-rule="evenodd" d="M152.905 136.375C152.746 136.488 152.503 136.63 152.159 136.772V133.651C152.671 133.824 152.964 134.019 153.123 134.159C153.425 134.432 153.543 134.745 153.543 135.316C153.543 135.575 153.476 135.968 152.905 136.375ZM150.817 137.153C150.373 137.241 149.844 137.31 149.232 137.352V133.244C149.844 133.253 150.373 133.292 150.817 133.352V137.153ZM147.89 137.392C147.404 137.39 146.884 137.377 146.297 137.339V133.396C146.876 133.336 147.404 133.294 147.89 133.271V137.392ZM144.964 137.222C144.46 137.168 143.932 137.099 143.37 137.017V133.803C143.924 133.711 144.452 133.629 144.964 133.558V137.222ZM142.037 136.8C141.525 136.712 140.997 136.607 140.443 136.495V134.342C140.98 134.234 141.517 134.132 142.037 134.037V136.8ZM139.11 136.205C138.045 135.967 136.938 135.699 135.714 135.369C136.863 135.101 138.003 134.85 139.11 134.616V136.205ZM155.74 131.213C153.811 129.489 150.44 128.94 145.45 129.518C137.341 130.463 123.051 134.508 117.885 136.02C116.828 136.328 116.233 137.434 116.551 138.483C116.862 139.519 117.952 140.11 118.992 139.807C120.988 139.225 124.392 138.252 128.258 137.232C136.552 139.976 143.144 141.352 147.974 141.352C151.144 141.352 153.568 140.761 155.212 139.577C156.679 138.523 157.484 137.01 157.484 135.316C157.484 133.623 156.897 132.241 155.74 131.213Z" fill="white"/>
<path fill-rule="evenodd" clip-rule="evenodd" d="M187.985 109.907L156.335 119.267C155.153 119.616 154.474 120.857 154.826 122.038C155.111 123.007 156.017 123.662 157.031 123.634L187.339 122.795C188.069 122.774 188.639 122.169 188.614 121.445C188.597 120.719 187.985 120.148 187.264 120.172L164.646 120.921L189.109 113.691C190.149 113.382 190.752 112.285 190.442 111.24C190.132 110.195 189.033 109.598 187.985 109.907Z" fill="white"/>
<path fill-rule="evenodd" clip-rule="evenodd" d="M118.187 121.904C118.497 120.9 117.927 119.834 116.912 119.535L84.8514 110.056C83.8618 109.763 82.8219 110.32 82.5116 111.305C82.2013 112.31 82.7716 113.376 83.7779 113.674L92.7595 116.328C92.5583 116.769 92.4492 117.257 92.4492 117.772C92.4492 119.754 94.0594 121.362 96.047 121.362C97.8332 121.362 99.3092 120.055 99.5859 118.346L115.847 123.154C116.836 123.446 117.876 122.89 118.187 121.904Z" fill="white"/>
</g>
</svg>
