<svg width="151" height="27" viewBox="0 0 151 27" fill="none" xmlns="http://www.w3.org/2000/svg">
<path d="M15.784 17.756L7.612 0.907999H0.124V26H5.74V8.216L13.372 23.768H18.304L25.936 8.072V26H31.552V0.907999H23.992L15.784 17.756ZM41.4244 26V0.907999H35.7364V26H41.4244ZM63.0385 16.028C66.3505 15.272 68.7985 13.256 68.7985 8.576C68.7985 2.24 64.2265 0.907999 58.6825 0.907999H45.6505V26H51.2665V16.46H57.3865L63.0745 26H69.4825L63.0385 16.028ZM58.4665 5.012C60.5545 5.012 63.1465 5.336 63.1465 8.648C63.1465 11.96 60.5905 12.32 58.4665 12.32H51.2665V5.012H58.4665ZM97.9276 26L87.1996 0.907999H81.2236L70.4956 26H76.6156L78.5956 20.996H89.7916L91.7356 26H97.9276ZM84.2116 6.632L88.2076 16.856H80.2156L84.2116 6.632ZM120.445 16.46C120.409 19.664 118.573 22.292 112.741 22.292C106.261 22.292 103.273 18.728 103.273 13.508C103.273 8 106.225 4.616 112.597 4.616C116.953 4.616 119.365 6.164 120.805 9.296L126.133 7.64C123.793 2.816 118.969 0.368 112.669 0.368C103.453 0.368 97.6573 5.48 97.6573 13.652C97.6573 21.212 103.021 26.54 112.381 26.54C116.341 26.54 119.689 25.604 121.669 23.228L121.993 26H126.133V12.428H113.965V16.46H120.445ZM150.476 26V21.896H135.536V15.452H149.288V11.276H135.536V5.012H150.476V0.907999H129.92V26H150.476Z" fill="white"/>
</svg>
